<?xml version="1.0" encoding="UTF-8" standalone="no"?>
<svg
   xmlns:dc="http://purl.org/dc/elements/1.1/"
   xmlns:cc="http://creativecommons.org/ns#"
   xmlns:rdf="http://www.w3.org/1999/02/22-rdf-syntax-ns#"
   xmlns:svg="http://www.w3.org/2000/svg"
   xmlns="http://www.w3.org/2000/svg"
   xmlns:sodipodi="http://sodipodi.sourceforge.net/DTD/sodipodi-0.dtd"
   xmlns:inkscape="http://www.inkscape.org/namespaces/inkscape"
   inkscape:version="1.0 (4035a4fb49, 2020-05-01)"
   sodipodi:docname="wv-logo.svg"
   version="1.1"
   viewBox="0 0 895.29 214.07"
   data-name="Layer 1"
   id="Layer_1">
  <metadata
     id="metadata1278">
    <rdf:RDF>
      <cc:Work
         rdf:about="">
        <dc:format>image/svg+xml</dc:format>
        <dc:type
           rdf:resource="http://purl.org/dc/dcmitype/StillImage" />
        <dc:title>nimbus worldview</dc:title>
      </cc:Work>
    </rdf:RDF>
  </metadata>
  <sodipodi:namedview
     inkscape:current-layer="Layer_1"
     inkscape:window-maximized="0"
     inkscape:window-y="48"
     inkscape:window-x="52"
     inkscape:cy="-21.524068"
     inkscape:cx="411.32624"
     inkscape:zoom="0.61041675"
     showgrid="false"
     id="namedview1276"
     inkscape:window-height="867"
     inkscape:window-width="1667"
     inkscape:pageshadow="2"
     inkscape:pageopacity="0"
     guidetolerance="10"
     gridtolerance="10"
     objecttolerance="10"
     borderopacity="1"
     bordercolor="#666666"
     pagecolor="#ffffff" />
  <defs
     id="defs1154">
    <style
       id="style1152">.cls-1,.cls-2,.cls-4,.cls-6{fill:#fff;}.cls-1,.cls-2,.cls-6{stroke:#000;}.cls-1,.cls-6{stroke-miterlimit:10;}.cls-1{stroke-width:3px;}.cls-2{stroke-linejoin:round;stroke-width:4.66px;fill-rule:evenodd;}.cls-3{fill:#0b3d91;}.cls-5{fill:#fc3d21;}.cls-6{font-size:94px;stroke-width:2px;font-family:BirchStd, Birch Std;}</style>
  </defs>
  <title
     id="title1156">nimbus worldview</title>
  <g
     transform="matrix(0.80595602,0,0,0.80595602,0.00970219,32)"
     id="g2714">
    <path
       class="cls-1"
       d="m 676.86,83.65 a 18.9,18.9 0 0 0 -7.83,3.5 l -1.63,1.31 -3.4,-0.68 c -8.39,-1.75 -16.85,1.56 -18.85,7.39 -0.76,2.14 -0.76,2.14 -3.64,2.14 -9.21,0 -16.91,4.71 -16.91,10.3 v 2.33 h -2.63 c -8.09,0 -17.8,2.29 -21.62,5.11 -2.63,2 -2.63,2 -6.95,1.8 -8.59,-0.39 -17.48,2.18 -21,6 -1.75,1.95 -2.19,2.14 -4.64,2.14 -2.06,0 -2.82,-0.24 -3.32,-1 -2.82,-4 -27.69,-6.56 -45.42,-4.57 -11.4,1.26 -17.23,3.11 -17.23,5.54 0,1.22 -0.25,1.31 -4.13,1.9 -5.39,0.77 -9.71,2.23 -11.9,4 a 6.33,6.33 0 0 1 -2.57,1.41 5.59,5.59 0 0 0 -2.45,1.22 c -1.5,1.16 -2.13,1.26 -7.64,1.36 -4.89,0.09 -6.58,0.34 -8.71,1.21 -2.88,1.17 -4.57,2.72 -4.57,4.13 0,0.63 -0.32,0.83 -1,0.63 a 9.46,9.46 0 0 0 -1.88,-0.29 c -0.69,0 -0.82,-0.29 -0.57,-1 1.13,-2.77 -2.69,-7.48 -7.83,-9.48 -2.5,-1 -3,-1.41 -3.32,-2.91 -1,-4.91 -9.21,-9 -23,-11.52 A 120.56,120.56 0 0 0 405.8,114.4 c -10.83,-0.29 -11.15,-0.29 -11.15,-1.31 0,-5.39 -7.83,-11.08 -18.79,-13.66 -11.53,-2.67 -27,-2.81 -37.84,-0.34 -1.51,0.34 -2.63,0.1 -5.95,-1.21 -5.39,-2.09 -9.72,-2.77 -17.3,-2.72 -9.83,0 -18.16,2.72 -24.12,7.72 -2.75,2.34 -5.63,6.57 -5.63,8.32 0,1.07 -0.26,1.11 -4.95,1.11 -10.28,0 -17.36,2.09 -23.25,6.81 -3.19,2.57 -3.88,2.91 -6,2.91 -6.52,0 -14.66,2.53 -19.49,6 -3.75,2.68 -5.2,5 -5.2,8.36 0,2.63 -0.12,2.82 -3.07,5.06 -2.31,1.75 -3.19,2.86 -3.88,4.81 -0.81,2.53 -0.88,2.57 -2.69,2.23 a 50.51,50.51 0 0 0 -7,-0.29 c -11.34,0.1 -20.36,4.47 -20.36,10 v 1.65 l -4.57,0.29 c -6.08,0.39 -12.53,2 -15,3.74 -1.75,1.22 -1.88,1.51 -1.38,2.72 0.76,1.66 3.51,3 9,4.28 4.13,1 4.44,1 143.53,1.17 154.8,0.14 142.59,0.39 146.53,-3.06 1.63,-1.51 3.2,-4.28 3.2,-5.93 0,-0.78 4.63,-3.55 5.95,-3.55 a 8.89,8.89 0 0 1 3.13,1.26 c 3.26,1.9 9,3.11 15,3.11 4.95,0 11.77,-1 13.22,-1.94 0.43,-0.29 1.94,-0.1 4.13,0.58 2.82,0.92 4.76,1.12 12.22,1.17 6.14,0.09 9.46,0.34 11,0.82 6.58,2.14 16.92,1.95 23.31,-0.38 2.82,-1 3.44,-1.12 6.26,-0.64 7.27,1.22 17.23,-0.24 20.93,-3 1.25,-0.92 1.69,-1 3.38,-0.53 a 15.35,15.35 0 0 0 9,-0.39 c 2.63,-0.93 6.58,-4 6.58,-5.11 0,-0.39 1.06,-0.77 2.76,-0.92 a 59.59,59.59 0 0 0 6.64,-1.36 c 3.76,-1 3.88,-1 8.2,-0.2 5.33,1 14.29,0.78 19,-0.48 2.82,-0.78 3.19,-0.78 5.32,-0.05 a 45,45 0 0 0 15.23,2.24 c 7.33,0 11.46,-0.64 16.6,-2.48 2.94,-1.12 4.19,-1.32 5.07,-1 2.13,0.88 9.4,1.37 13.78,0.93 a 37.46,37.46 0 0 0 8.09,-1.95 c 2.13,-0.77 4.13,-1.31 4.44,-1.16 3.07,1.46 23.87,2.33 30.83,1.26 a 15.13,15.13 0 0 1 3,-0.24 4.93,4.93 0 0 1 -0.57,2.14 c -0.69,1.75 -0.62,2.43 0.32,4.71 1.81,4.42 7.14,8.26 15,10.74 7.86,2.48 10.15,2.77 20.8,2.77 9.46,-0.05 10.34,-0.14 15.54,-1.5 l 5.57,-1.46 4.57,1.8 c 6.27,2.43 11,3.16 20.68,3.16 8.58,0 13.91,-0.93 19,-3.21 1.7,-0.78 2.51,-0.88 3.76,-0.49 8.46,2.53 24.19,1.75 31.33,-1.46 2.13,-1 2.13,-1 5.32,0 9.84,3 22,2.39 29.76,-1.55 2.19,-1.12 2.32,-1.12 5.08,-0.29 a 60.52,60.52 0 0 0 7.89,1.41 c 11.21,1.36 23.31,-2.29 26.63,-8 a 9.25,9.25 0 0 0 1.19,-3 c 0,-0.83 0.62,-1.07 3.63,-1.51 9.34,-1.41 13.28,-6.51 8.46,-10.93 -2,-1.8 -5.14,-3.06 -9.71,-3.84 -3.13,-0.54 -3.64,-0.78 -4,-2 -0.81,-2.92 -6.89,-6.37 -15.16,-8.51 -7.39,-1.94 -13.72,-2.67 -24.62,-3 -9.84,-0.2 -10.53,-0.3 -13.78,-1.61 -4.58,-1.84 -12.72,-3.64 -19.86,-4.37 -5.64,-0.59 -21.74,-0.44 -25.38,0.29 -1.5,0.24 -1.81,0.1 -2.38,-1 -1.13,-2.34 -6.08,-5.93 -10.21,-7.39 -3.45,-1.26 -4.57,-1.41 -10.15,-1.41 -5.58,0 -6.7,0.15 -9.71,1.26 -4.45,1.61 -7.58,3.75 -9.4,6.37 l -1.38,2.09 -3.69,-1.36 c -12.47,-4.62 -28.57,-3.35 -36.84,2.92 -3.32,2.52 -3.63,2.62 -5.39,2.18 a 62.38,62.38 0 0 0 -11.53,-1.55 c -1.5,0 -2.5,-0.29 -2.94,-0.88 a 16.09,16.09 0 0 0 -4.07,-2.28 c -3,-1.31 -3.95,-1.46 -8.77,-1.46 h -5.45 l -0.25,-2.58 c -0.51,-4.27 -4.7,-7.43 -11.59,-8.5 -3.64,-0.58 -3.76,-0.63 -3,-1.56 a 4.66,4.66 0 0 0 0.88,-2.86 c 0,-2.87 -2.07,-4.91 -6.89,-6.76 -3.76,-1.46 -4.51,-1.55 -10.15,-1.55 H 696 v -1.35 c 0,-2.19 -3.39,-5.44 -7,-6.85 a 27.21,27.21 0 0 0 -12.14,-1.17 z"
       transform="translate(-75.71,-15.8)"
       id="path1158" />
    <g
       id="Design">
      <path
         class="cls-2"
         d="m 724.17,129.43 h -9.42 L 691.19,66.21 h 9.43 l 18.84,50.58 9.42,-25.29 -9.42,-25.29 h 9.42 l 4.72,12.65 4.71,-12.65 h 9.42 l -9.42,25.29 9.42,25.29 18.85,-50.58 H 776 l -23.56,63.22 H 743 l -9.42,-25.29 z"
         transform="translate(-75.71,-15.8)"
         id="path1160" />
      <path
         class="cls-2"
         d="M 684.91,129.43 H 647.22 V 66.21 h 37.69 v 9.49 h -28.27 v 14.22 h 28.27 V 99.4 H 656.64 V 120 h 28.27 z"
         transform="translate(-75.71,-15.8)"
         id="path1162" />
      <path
         class="cls-2"
         d="m 601.67,129.43 h -9.42 L 568.69,66.21 h 9.42 L 597,116.79 615.85,66.21 h 9.42 z"
         transform="translate(-75.71,-15.8)"
         id="path1164" />
      <path
         class="cls-2"
         d="M 540.42,129.43 H 515.29 V 66.21 h 25.13 c 15.6,0 28.27,14.17 28.27,31.61 0,17.44 -12.69,31.61 -28.27,31.61 z m 0,-53.73 c 10.4,0 18.85,9.91 18.85,22.12 0,12.21 -8.45,22.18 -18.85,22.18 h -15.7 V 75.7 Z"
         transform="translate(-75.71,-15.8)"
         id="path1166" />
      <path
         class="cls-2"
         d="m 471.32,66.21 h 9.42 V 120 H 509 v 9.48 h -37.68 z"
         transform="translate(-75.71,-15.8)"
         id="path1168" />
      <path
         class="cls-2"
         d="m 428.92,129.43 h -9.43 V 66.21 h 22 a 19,19 0 0 1 11.39,34.08 32.79,32.79 0 0 1 12.17,26 c 0,1.15 -0.12,3.15 -0.12,3.16 h -9.43 c 0,0 0.11,-2 0.11,-3.16 0,-12.21 -8.44,-22.13 -18.84,-22.13 h -7.85 z m 12.56,-34.77 a 9.5,9.5 0 0 0 0,-19 h -12.56 v 19 z"
         transform="translate(-75.71,-15.8)"
         id="path1170" />
      <path
         class="cls-2"
         d="m 384.94,66.21 c 15.6,0 28.27,14.17 28.27,31.61 0,17.44 -12.67,31.61 -28.27,31.61 -15.6,0 -28.27,-14.16 -28.27,-31.61 0,-17.45 12.67,-31.61 28.27,-31.61 z m 0,9.49 c 10.4,0 18.85,9.91 18.85,22.12 0,12.21 -8.45,22.18 -18.85,22.18 -10.4,0 -18.84,-10 -18.84,-22.18 0,-12.18 8.44,-22.12 18.84,-22.12 z"
         transform="translate(-75.71,-15.8)"
         id="path1172" />
      <path
         class="cls-2"
         d="M 293,129.43 H 280.27 L 248.46,44.09 h 12.72 l 25.45,68.27 12.72,-34.14 -12.72,-34.13 h 12.72 l 6.36,17.07 6.36,-17.07 h 12.72 l -12.72,34.13 12.72,34.14 25.44,-68.27 H 363 l -31.8,85.34 H 318.43 L 305.71,95.29 Z"
         transform="translate(-75.71,-15.8)"
         id="path1174" />
      <g
         id="NASA">
        <path
           class="cls-3"
           d="M 85.32,86.92 C 85.32,47.67 117,15.8 156,15.8 c 39,0 70.68,31.87 70.68,71.12 C 226.68,126.17 195,158 156,158 117,158 85.32,126.17 85.32,86.92 Z"
           transform="translate(-75.71,-15.8)"
           id="path1176" />
        <g
           id="Group">
          <path
             class="cls-4"
             d="m 151,29.46 a 0.79,0.79 0 1 1 0.79,0.8 0.8,0.8 0 0 1 -0.79,-0.8 z"
             transform="translate(-75.71,-15.8)"
             id="path1178" />
          <path
             class="cls-4"
             d="m 159.16,30.52 a 0.8,0.8 0 1 1 0.8,0.8 0.8,0.8 0 0 1 -0.8,-0.8 z"
             transform="translate(-75.71,-15.8)"
             id="path1180" />
          <path
             class="cls-4"
             d="m 169.83,45 a 0.8,0.8 0 1 1 0.8,0.8 0.8,0.8 0 0 1 -0.8,-0.8 z"
             transform="translate(-75.71,-15.8)"
             id="path1182" />
          <path
             class="cls-4"
             d="m 111.31,119.4 a 0.79,0.79 0 1 1 0.79,0.8 0.8,0.8 0 0 1 -0.79,-0.8 z"
             transform="translate(-75.71,-15.8)"
             id="path1184" />
          <path
             class="cls-4"
             d="m 113.37,125.78 a 0.79,0.79 0 1 1 1.58,0 0.79,0.79 0 0 1 -1.58,0 z"
             transform="translate(-75.71,-15.8)"
             id="path1186" />
          <path
             class="cls-4"
             d="m 103.74,120.35 a 0.6,0.6 0 1 1 0.6,0.6 0.6,0.6 0 0 1 -0.6,-0.6 z"
             transform="translate(-75.71,-15.8)"
             id="path1188" />
          <path
             class="cls-4"
             d="m 136,132.88 a 0.6,0.6 0 0 1 1.19,0 0.6,0.6 0 1 1 -1.19,0 z"
             transform="translate(-75.71,-15.8)"
             id="path1190" />
          <path
             class="cls-4"
             d="m 186.5,122.32 a 0.59,0.59 0 0 1 1.18,0 0.59,0.59 0 1 1 -1.18,0 z"
             transform="translate(-75.71,-15.8)"
             id="path1192" />
          <path
             class="cls-4"
             d="m 201.18,106.27 a 0.6,0.6 0 1 1 0.6,0.6 0.6,0.6 0 0 1 -0.6,-0.6 z"
             transform="translate(-75.71,-15.8)"
             id="path1194" />
          <path
             class="cls-4"
             d="m 129.2,49.64 a 0.6,0.6 0 0 1 1.19,0 0.6,0.6 0 1 1 -1.19,0 z"
             transform="translate(-75.71,-15.8)"
             id="path1196" />
          <path
             class="cls-4"
             d="m 145.37,37.7 a 0.59,0.59 0 1 1 0.59,0.6 0.59,0.59 0 0 1 -0.59,-0.6 z"
             transform="translate(-75.71,-15.8)"
             id="path1198" />
          <path
             class="cls-4"
             d="m 143.61,36.53 a 0.6,0.6 0 1 1 0.59,0.6 0.6,0.6 0 0 1 -0.59,-0.6 z"
             transform="translate(-75.71,-15.8)"
             id="path1200" />
          <path
             class="cls-4"
             d="m 142,35.36 a 0.59,0.59 0 1 1 0.59,0.6 0.59,0.59 0 0 1 -0.59,-0.6 z"
             transform="translate(-75.71,-15.8)"
             id="path1202" />
          <path
             class="cls-4"
             d="m 131.74,52.73 a 0.59,0.59 0 1 1 0.59,0.6 0.59,0.59 0 0 1 -0.59,-0.6 z"
             transform="translate(-75.71,-15.8)"
             id="path1204" />
          <path
             class="cls-4"
             d="m 155.55,21.65 a 0.59,0.59 0 1 1 1.18,0 0.59,0.59 0 0 1 -1.18,0 z"
             transform="translate(-75.71,-15.8)"
             id="path1206" />
          <path
             class="cls-4"
             d="m 159.46,38.87 a 0.59,0.59 0 1 1 1.18,0 0.59,0.59 0 1 1 -1.18,0 z"
             transform="translate(-75.71,-15.8)"
             id="path1208" />
          <path
             class="cls-4"
             d="m 153.29,35.5 a 0.59,0.59 0 1 1 0.59,0.6 0.59,0.59 0 0 1 -0.59,-0.6 z"
             transform="translate(-75.71,-15.8)"
             id="path1210" />
          <path
             class="cls-4"
             d="m 142.72,40.08 a 0.6,0.6 0 1 1 0.6,0.6 0.6,0.6 0 0 1 -0.6,-0.6 z"
             transform="translate(-75.71,-15.8)"
             id="path1212" />
          <path
             class="cls-4"
             d="m 189.31,138.1 a 0.6,0.6 0 1 1 0.59,0.59 0.6,0.6 0 0 1 -0.59,-0.59 z"
             transform="translate(-75.71,-15.8)"
             id="path1214" />
          <path
             class="cls-4"
             d="m 110.5,123.44 a 0.6,0.6 0 1 1 0.6,0.6 0.6,0.6 0 0 1 -0.6,-0.6 z"
             transform="translate(-75.71,-15.8)"
             id="path1216" />
          <path
             class="cls-4"
             d="m 151.81,131.15 a 0.6,0.6 0 1 1 0.59,0.59 0.6,0.6 0 0 1 -0.59,-0.59 z"
             transform="translate(-75.71,-15.8)"
             id="path1218" />
          <path
             class="cls-4"
             d="m 122.8,123 a 0.59,0.59 0 1 1 0.59,0.6 0.59,0.59 0 0 1 -0.59,-0.6 z"
             transform="translate(-75.71,-15.8)"
             id="path1220" />
          <path
             class="cls-4"
             d="m 127.94,131.4 a 0.59,0.59 0 1 1 0.59,0.6 0.59,0.59 0 0 1 -0.59,-0.6 z"
             transform="translate(-75.71,-15.8)"
             id="path1222" />
          <path
             class="cls-4"
             d="m 165.75,126.08 a 0.6,0.6 0 1 1 0.6,0.6 0.6,0.6 0 0 1 -0.6,-0.6 z"
             transform="translate(-75.71,-15.8)"
             id="path1224" />
          <path
             class="cls-4"
             d="m 186.6,114.24 a 0.6,0.6 0 1 1 0.6,0.6 0.6,0.6 0 0 1 -0.6,-0.6 z"
             transform="translate(-75.71,-15.8)"
             id="path1226" />
          <path
             class="cls-4"
             d="m 202.41,121.51 a 0.6,0.6 0 1 1 0.59,0.6 0.6,0.6 0 0 1 -0.59,-0.6 z"
             transform="translate(-75.71,-15.8)"
             id="path1228" />
          <path
             class="cls-4"
             d="m 207.8,125 a 0.6,0.6 0 1 1 0.59,0.6 0.6,0.6 0 0 1 -0.59,-0.6 z"
             transform="translate(-75.71,-15.8)"
             id="path1230" />
          <path
             class="cls-4"
             d="m 208.69,115.52 a 0.59,0.59 0 1 1 1.18,0 0.59,0.59 0 1 1 -1.18,0 z"
             transform="translate(-75.71,-15.8)"
             id="path1232" />
          <path
             class="cls-4"
             d="m 130.09,102.12 a 0.59,0.59 0 1 1 0.59,0.6 0.59,0.59 0 0 1 -0.59,-0.6 z"
             transform="translate(-75.71,-15.8)"
             id="path1234" />
          <path
             class="cls-4"
             d="m 130.11,115.84 a 0.8,0.8 0 1 1 0.79,0.79 0.79,0.79 0 0 1 -0.79,-0.79 z"
             transform="translate(-75.71,-15.8)"
             id="path1236" />
          <path
             class="cls-4"
             d="m 134.87,125.94 a 0.79,0.79 0 1 1 1.58,0 0.79,0.79 0 0 1 -1.58,0 z"
             transform="translate(-75.71,-15.8)"
             id="path1238" />
          <path
             class="cls-4"
             d="m 191.81,115.41 a 0.79,0.79 0 1 1 0.79,0.8 0.79,0.79 0 0 1 -0.79,-0.8 z"
             transform="translate(-75.71,-15.8)"
             id="path1240" />
          <path
             class="cls-4"
             d="m 212.3,114.24 a 0.79,0.79 0 1 1 0.79,0.8 0.8,0.8 0 0 1 -0.79,-0.8 z"
             transform="translate(-75.71,-15.8)"
             id="path1242" />
          <path
             class="cls-4"
             d="m 202.16,109.88 a 0.79,0.79 0 1 1 0.79,0.8 0.8,0.8 0 0 1 -0.79,-0.8 z"
             transform="translate(-75.71,-15.8)"
             id="path1244" />
          <path
             class="cls-4"
             d="m 191.81,110.31 a 0.79,0.79 0 1 1 1.58,0 0.79,0.79 0 0 1 -1.58,0 z"
             transform="translate(-75.71,-15.8)"
             id="path1246" />
          <path
             class="cls-4"
             d="m 171.24,29 2,-0.19 -2,-0.11 a 0.89,0.89 0 0 0 -0.75,-0.73 l -0.19,-2 -0.12,2 a 0.89,0.89 0 0 0 -0.67,0.76 l -2,0.18 2,0.11 a 0.87,0.87 0 0 0 0.69,0.67 l 0.18,2 0.11,-2 A 0.88,0.88 0 0 0 171.24,29 Z"
             transform="translate(-75.71,-15.8)"
             id="path1248" />
          <path
             class="cls-4"
             d="m 138,51 2,-0.19 -2,-0.11 a 0.88,0.88 0 0 0 -0.75,-0.73 l -0.19,-2 L 137,50 a 0.87,0.87 0 0 0 -0.68,0.75 l -2,0.18 2,0.11 a 0.9,0.9 0 0 0 0.7,0.68 l 0.18,2 0.11,-2 A 0.9,0.9 0 0 0 138,51 Z"
             transform="translate(-75.71,-15.8)"
             id="path1250" />
          <path
             class="cls-4"
             d="m 211.65,109.39 2,-0.19 -2,-0.11 a 0.87,0.87 0 0 0 -0.75,-0.73 l -0.19,-2 -0.11,2 a 0.89,0.89 0 0 0 -0.67,0.75 l -2,0.18 2,0.11 a 0.88,0.88 0 0 0 0.69,0.68 l 0.18,2 0.11,-2 a 0.88,0.88 0 0 0 0.74,-0.69 z"
             transform="translate(-75.71,-15.8)"
             id="path1252" />
          <path
             class="cls-4"
             d="m 131.34,139.91 2,-0.19 -2,-0.11 a 0.86,0.86 0 0 0 -0.75,-0.73 l -0.19,-2 -0.11,2 a 0.86,0.86 0 0 0 -0.67,0.75 l -2,0.19 2,0.11 a 0.87,0.87 0 0 0 0.69,0.67 l 0.19,2 0.11,-2 a 0.91,0.91 0 0 0 0.73,-0.69 z"
             transform="translate(-75.71,-15.8)"
             id="path1254" />
          <path
             class="cls-4"
             d="m 205.39,125 2,-0.19 -2,-0.11 a 0.87,0.87 0 0 0 -0.75,-0.74 l -0.19,-2 -0.11,2 a 0.89,0.89 0 0 0 -0.67,0.75 l -2,0.18 2,0.11 a 0.86,0.86 0 0 0 0.7,0.67 l 0.18,2 0.11,-2 a 0.88,0.88 0 0 0 0.73,-0.67 z"
             transform="translate(-75.71,-15.8)"
             id="path1256" />
        </g>
        <path
           class="cls-5"
           d="m 172.76,69.88 c -8.22,3.22 -16.24,6.09 -23,8.22 -13.74,4.33 -51.34,16.05 -74,30.83 l 1.9,0.74 c 13.84,-7.87 22.83,-10.34 31.48,-13.07 9.4,-3 39.8,-10.14 53.56,-14 4.65,-1.31 10.09,-3 15.86,-5.14 -1.34,-1.88 -2.76,-3.77 -4.24,-5.65 -0.55,-0.68 -1.06,-1.31 -1.56,-1.93 z m 10,13.93 c -2,1.35 -3.65,2.43 -4.82,3.11 -6.76,3.93 -39.72,26.58 -47.22,31.79 -7.5,5.21 -28.31,25 -34.44,30.72 l -0.21,2.34 c 19.75,-17.86 26,-22.27 33.8,-28.28 9.72,-7.44 29.83,-21.21 36.66,-25.62 q 9.8,-6.33 17.71,-11.65 l -0.26,-0.43 c -0.4,-0.66 -0.8,-1.32 -1.22,-2 z M 213.67,51 c -9.62,5.67 -24.79,12.53 -39.5,18.34 l 1.05,1.31 q 2.46,3.14 4.65,6.28 c 11.57,-4.28 24.26,-10 34.33,-17 -4.79,4.57 -20.65,16.5 -30.33,23.15 0.5,0.82 1,1.63 1.45,2.45 14.65,-9.87 24.51,-17.13 30.26,-22 7.92,-6.7 26,-21.69 32.85,-41.78 C 236.39,37.17 222.15,46 213.67,51 Z"
           transform="translate(-75.71,-15.8)"
           id="path1259" />
        <path
           class="cls-4"
           d="m 146.9,104.53 c -1.56,-2 -3.71,-4.62 -5.33,-6.67 -2.16,-2.74 -4.17,-5.51 -6,-8.27 l -1.79,0.45 a 125.12,125.12 0 0 0 7.35,10.35 c 2,2.47 3.74,4.47 4.65,5.71 l 1.05,1.55 1.72,-1.18 c -0.55,-0.61 -1.11,-1.26 -1.65,-1.94 z m 11.37,10.39 c -1.28,-1.22 -4.38,-3.26 -7.61,-6.31 l -2.15,1.5 c 2.08,3 4.92,6.59 7.15,7.65 3.34,1.6 4.25,-1.28 2.61,-2.84 z m 16.95,-44.28 c -18.47,-23.4 -41,-36.25 -50.77,-28.47 -7.56,6 -4.45,23.7 6,42.25 l 1.6,-0.55 C 121.5,65.8 118.62,49 125.75,43.3 c 8.95,-7.16 30.58,5.74 48.52,28.46 a 137.09,137.09 0 0 1 9.74,14 c 10.58,17.63 13.84,33.57 6.52,40.08 -2.24,2 -9.08,2.77 -18,-1.29 -0.12,0.16 0.08,0.59 0.24,0.69 7.73,3.13 15.14,4.33 18.88,1.34 8.94,-7.16 2.04,-32.58 -16.43,-55.94 z"
           transform="translate(-75.71,-15.8)"
           id="path1261" />
        <path
           class="cls-4"
           d="m 96,73.42 h 11.83 l 9.93,17 V 77.14 c 0,-1.49 -1.87,-3.43 -2.53,-3.72 h 8.19 a 5.24,5.24 0 0 0 -2.12,3.72 V 96.6 c 0,1.19 1.72,2.84 2.54,3.48 H 112.42 L 102.33,83 v 13.43 c 0,1.33 1.29,2.61 2.64,3.7 h -8.71 a 4.79,4.79 0 0 0 2.53,-3.53 c 0.11,-1.34 0,-18.48 0,-19.22 0,-1.62 -1.56,-2.95 -2.79,-3.96 z"
           transform="translate(-75.71,-15.8)"
           id="path1263" />
        <path
           class="cls-4"
           d="M 204.22,100.08 H 220 a 4.2,4.2 0 0 1 -2.38,-2.63 c -0.52,-1.39 -8.87,-24 -8.87,-24 h -6 q -2.53,1.85 -5.45,3.89 c 0,0 0,0.1 0,0.15 -0.3,1.56 -5,18.63 -5.3,19.51 -0.4,1.17 -2.43,2.47 -3.25,3.16 h 8.48 c -0.85,-1 -1.53,-1.89 -1.38,-2.95 0.15,-1.06 0.64,-3.19 0.64,-3.19 h 8.77 a 16.49,16.49 0 0 1 0.84,2.92 c 0.2,1.06 -0.9,2.29 -1.88,3.14 z m -6.92,-9.49 3,-9.73 3.91,9.73 z m -1.3,-16.2 1.3,-1 H 195 c 0.2,0.24 0.58,0.61 1,1 z"
           transform="translate(-75.71,-15.8)"
           id="path1265" />
        <path
           class="cls-4"
           d="m 135.77,97.18 c 0.15,-1.06 0.63,-3.19 0.63,-3.19 h 8.77 a 16.49,16.49 0 0 1 0.84,2.92 c 0.19,1.09 -0.92,2.32 -1.9,3.17 H 158 l 0.86,-0.59 a 5.33,5.33 0 0 1 -1.36,-2 c -0.52,-1.39 -8.87,-24 -8.87,-24 h -13.76 c 0.66,0.61 2.56,2.26 2.27,4 -0.26,1.59 -4.95,18.66 -5.23,19.51 -0.4,1.17 -2.43,2.47 -3.25,3.16 h 8.48 c -0.85,-0.99 -1.53,-1.92 -1.37,-2.98 z m 4.38,-16.32 3.91,9.73 h -6.87 z"
           transform="translate(-75.71,-15.8)"
           id="path1267" />
        <path
           class="cls-4"
           d="m 183.64,86.65 q -3.88,2.59 -8.19,5.43 c 1.29,0.63 2.32,1.42 2.42,2.44 0.18,1.92 -3.65,2.84 -7.11,2.45 a 8.8,8.8 0 0 1 -2,-0.51 l -2.18,1.41 c -0.75,0.48 -1.66,1.08 -2.69,1.77 v 2.75 a 4.79,4.79 0 0 1 3.35,-2.63 c 0.5,0 2.25,1.59 9.43,1.19 3.49,-0.19 10.22,-3.93 10.11,-8.24 a 8.28,8.28 0 0 0 -3.14,-6.06 z m -19.77,6.65 v 2.8 l 1.87,-1.26 a 13.19,13.19 0 0 1 -1.87,-1.54 z m 17.31,-8.41 c -0.67,-0.4 -1.35,-0.74 -2,-1 -3.38,-1.6 -6.92,-1.89 -7.66,-4 -0.52,-1.52 1,-2.93 4.55,-2.87 a 14,14 0 0 1 7.81,3 V 73 c -0.26,0.27 -1.42,1.61 -2.48,1.39 a 45.89,45.89 0 0 0 -9.45,-1 8.54,8.54 0 0 0 -8.59,8 c -0.18,6.24 4.78,7.94 7.58,8.93 l 1,0.32 c 2.68,-1.76 4.81,-3.11 6.05,-3.83 0.81,-0.38 1.91,-1.07 3.19,-1.92 z"
           transform="translate(-75.71,-15.8)"
           id="path1269" />
      </g>
    </g>
    <text
       class="cls-6"
       transform="matrix(0.86,0,0,1,602.36,189.57)"
       id="text1273">with Nimbus</text>
  </g>
</svg>
